<svg width="37" height="37" viewBox="0 0 37 37" fill="none" xmlns="http://www.w3.org/2000/svg">
<path fill-rule="evenodd" clip-rule="evenodd" d="M30.3954 5.07415C30.6866 5.06398 30.9698 5.16988 31.1829 5.36856C31.3959 5.56723 31.5213 5.84241 31.5315 6.13354L31.9915 19.3063C32.0017 19.5974 31.8958 19.8807 31.6971 20.0937C31.4984 20.3068 31.2232 20.4322 30.9321 20.4423C30.641 20.4525 30.3577 20.3466 30.1447 20.1479C29.9316 19.9493 29.8062 19.6741 29.796 19.383L29.4286 8.86012L7.93141 31.9153C7.83291 32.0209 7.71457 32.1061 7.58315 32.166C7.45173 32.2259 7.3098 32.2593 7.16546 32.2644C7.02112 32.2694 6.87721 32.246 6.74193 32.1954C6.60665 32.1448 6.48265 32.0681 6.37703 31.9696C6.2714 31.8711 6.18621 31.7527 6.12632 31.6213C6.06642 31.4899 6.033 31.348 6.02796 31.2036C6.02292 31.0593 6.04636 30.9154 6.09694 30.7801C6.14752 30.6448 6.22425 30.5208 6.32275 30.4152L27.8222 7.36214L17.2994 7.72961C17.0082 7.73977 16.725 7.63387 16.5119 7.4352C16.2989 7.23652 16.1735 6.96135 16.1633 6.67021C16.1531 6.37908 16.259 6.09583 16.4577 5.88277C16.6564 5.66972 16.9316 5.54432 17.2227 5.53415L30.3954 5.07415Z" fill="white"/>
</svg>
