<svg width="37" height="36" viewBox="0 0 37 36" fill="none" xmlns="http://www.w3.org/2000/svg">
<path d="M21.6828 3.63741L20.6884 2.2652C20.5499 2.07413 20.4808 1.97861 20.3752 1.92929C20.2697 1.87998 20.1578 1.88775 19.934 1.90331C17.3845 2.08044 15.0613 3.08012 13.2278 4.63892C13.1309 4.72124 13.1903 4.87107 13.3172 4.87854C14.7881 4.96514 15.571 5.78237 16.4284 6.68882C17.7536 8.08992 18.7957 7.97408 19.2842 7.71584C19.4839 7.61031 19.5206 7.53564 19.5332 7.5099L19.5341 7.50804C19.574 7.42751 19.5907 7.34142 19.6501 7.01547C19.6997 6.74307 19.786 6.27545 20.0848 5.82395C20.4008 5.34648 20.8726 4.99839 21.4946 4.75176C21.754 4.64895 21.8338 4.50501 21.8626 4.36929C21.8984 4.20017 21.8695 3.93104 21.6828 3.63741Z" fill="white"/>
<path d="M23.1078 24.5313C23.2802 24.6756 23.3663 24.7479 23.4752 24.7713C23.5841 24.7947 23.6869 24.7659 23.8925 24.7085C27.5954 23.6712 30.5514 20.8455 31.7715 17.2211C31.9316 16.7454 32.0117 16.5077 31.877 16.3202C31.7423 16.1328 31.4775 16.1328 30.948 16.1328H30.502C29.7523 16.1328 29.3419 16.4094 28.7399 16.8239L28.7185 16.8386C28.096 17.2671 27.1869 17.8931 25.7813 17.6118C23.9289 17.2412 23.0432 17.3397 22.6613 17.5163C22.5189 17.5821 22.4618 17.6516 22.4214 17.7329C22.3679 17.8409 22.3143 18.0381 22.3143 18.3857L22.3145 18.5165C22.3148 19.2833 22.3151 19.8627 22.1835 20.3912C22.0466 20.9411 21.7744 21.4086 21.4393 21.9843L21.3819 22.0826C21.1644 22.457 21.1229 22.6643 21.1272 22.7607C21.1287 22.7933 21.1352 22.821 21.1577 22.8597C21.1838 22.9043 21.2489 22.9914 21.4058 23.1078C21.4238 23.121 21.4413 23.1348 21.4583 23.1492L23.1078 24.5313Z" fill="white"/>
<path opacity="0.4" d="M23.8112 2.87209C23.6648 2.55331 23.5916 2.39392 23.6558 2.3208C23.7199 2.24769 23.8736 2.29512 24.1811 2.39001C28.9265 3.85461 32.375 8.27764 32.375 13.5066C32.375 13.7157 32.203 13.8818 31.9939 13.8818H30.5C29.0399 13.8818 28.1348 14.5059 27.5134 14.9344L27.4627 14.9693C26.8609 15.3835 26.6495 15.4903 26.2207 15.4044C24.323 15.0247 22.8026 14.9703 21.7156 15.4729C21.1237 15.7465 20.6807 16.1756 20.4046 16.7312C20.1418 17.2604 20.0624 17.8387 20.0624 18.386C20.0624 19.3425 20.0543 19.6222 19.9984 19.847C19.9481 20.0489 19.8536 20.2308 19.4351 20.9511C19.1453 21.4495 18.8444 22.1153 18.8776 22.8608C18.9136 23.675 19.3325 24.3639 20.0353 24.8951C20.1269 24.9719 20.0689 25.119 19.9496 25.1109C13.9027 24.6995 9.125 19.6612 9.125 13.5066C9.125 11.4409 9.66318 9.50092 10.6069 7.81948C10.7888 7.49547 10.8797 7.33347 11.0552 7.23069C11.2308 7.12792 11.4328 7.12792 11.8369 7.12792H13.214C13.6858 7.16124 13.9255 7.31902 14.7932 8.23636C16.6168 10.1643 18.7235 10.5579 20.3342 9.70645C20.9168 9.3985 21.3083 8.99367 21.5491 8.5078C21.7403 8.12181 21.8106 7.71675 21.8503 7.48879L21.8626 7.41921C21.91 7.159 21.9377 7.10023 21.9598 7.06693C21.967 7.05577 22.0276 6.96165 22.3223 6.84478C23.2673 6.47014 23.8736 5.72571 24.0623 4.8372C24.2063 4.1592 24.0917 3.48289 23.8112 2.87209Z" fill="white"/>
<path fill-rule="evenodd" clip-rule="evenodd" d="M11.3255 1.95438C11.903 2.54835 11.8896 3.49801 11.2956 4.07548C8.79566 6.50602 7.25 9.88577 7.25 13.6238C7.25 20.9996 13.2824 27 20.75 27C24.4339 27 27.7687 25.5401 30.2044 23.172C30.7984 22.5945 31.748 22.608 32.3255 23.2019C32.903 23.7959 32.8897 24.7455 32.2957 25.323C29.3201 28.2159 25.2425 30 20.75 30V31.5H22.25C23.0785 31.5 23.75 32.1716 23.75 33C23.75 33.8285 23.0785 34.5 22.25 34.5H16.25C15.4216 34.5 14.75 33.8285 14.75 33C14.75 32.1716 15.4216 31.5 16.25 31.5H17.75V29.7299C10.0773 28.3304 4.25 21.6606 4.25 13.6238C4.25 9.03884 6.15025 4.89382 9.20438 1.92451C9.79835 1.34703 10.748 1.3604 11.3255 1.95438Z" fill="white"/>
</svg>
