<svg width="40" height="40" viewBox="0 0 40 40" fill="none" xmlns="http://www.w3.org/2000/svg">
<path d="M20.0947 2.9165C23.7459 2.91649 26.6137 2.91647 28.8527 3.21749C31.147 3.52597 32.9675 4.17104 34.3978 5.60135C35.8282 7.03169 36.4732 8.85212 36.7817 11.1465C37.0827 13.3856 37.0827 16.2533 37.0827 19.9045V20.0952C37.0827 23.7463 37.0827 26.6142 36.7817 28.8532C36.4732 31.1475 35.8282 32.968 34.3978 34.3983C32.9675 35.8287 31.147 36.4737 28.8527 36.7822C26.6137 37.0832 23.7459 37.0832 20.0947 37.0832H19.904C16.2529 37.0832 13.3851 37.0832 11.146 36.7822C8.85163 36.4737 7.0312 35.8287 5.60087 34.3983C4.17055 32.968 3.52548 31.1475 3.217 28.8532C2.91598 26.6142 2.916 23.7463 2.91602 20.0952V19.9045C2.916 16.2534 2.91598 13.3856 3.217 11.1465C3.52548 8.85212 4.17055 7.03169 5.60087 5.60135C7.0312 4.17104 8.85163 3.52597 11.146 3.21749C13.3851 2.91647 16.2529 2.91649 19.904 2.9165H20.0947Z" fill="white" fill-opacity="0.3"/>
<path fill-rule="evenodd" clip-rule="evenodd" d="M29.1565 14.0593C29.676 14.5139 29.7287 15.3036 29.274 15.8232L23.6593 22.2398C24.2393 23.0077 24.5833 23.9637 24.5833 25C24.5833 27.5313 22.5313 29.5833 20 29.5833C17.4687 29.5833 15.4167 27.5313 15.4167 25C15.4167 22.4687 17.4687 20.4167 20 20.4167C20.586 20.4167 21.1462 20.5267 21.6612 20.727L27.3927 14.1769C27.8472 13.6573 28.637 13.6047 29.1565 14.0593ZM11.25 20C11.25 15.1675 15.1675 11.25 20 11.25C21.5958 11.25 23.0883 11.6761 24.3742 12.4198C24.9717 12.7655 25.7363 12.5613 26.082 11.9637C26.4277 11.3661 26.2235 10.6015 25.6258 10.2558C23.9698 9.29787 22.047 8.75 20 8.75C13.7868 8.75 8.75 13.7868 8.75 20C8.75 20.6903 9.30965 21.25 10 21.25C10.6903 21.25 11.25 20.6903 11.25 20Z" fill="white"/>
</svg>
