<svg width="36" height="36" viewBox="0 0 36 36" fill="none" xmlns="http://www.w3.org/2000/svg">
<path opacity="0.4" d="M12.022 3.18757C12.2669 3.08074 12.6265 2.95734 13.0531 3.01446C13.5169 3.07656 13.8607 3.34123 14.0583 3.50647C14.2682 3.68194 14.7961 4.20547 14.7961 4.20547C15.6707 5.0727 16.8353 5.50647 18 5.5068C19.1648 5.50647 20.3294 5.0727 21.204 4.20547C21.204 4.20547 21.7319 3.68194 21.9417 3.50647C22.1394 3.34123 22.4832 3.07656 22.9469 3.01446C23.3735 2.95734 23.7332 3.08074 23.978 3.18757C24.2031 3.28579 24.4569 3.42918 24.7034 3.56826L28.077 5.50102C28.2957 5.65575 28.5914 5.90206 28.761 6.30064C28.9461 6.73578 28.8864 7.17435 28.8425 7.42801C28.7948 7.70251 28.6961 8.08044 28.6016 8.44209C28.0071 10.7173 29.459 13.1649 31.8093 13.7948L31.8507 13.8059C32.2064 13.9011 32.5395 13.9904 32.8001 14.0843C33.044 14.1722 33.4514 14.3372 33.7385 14.7097C34.0023 15.052 34.0722 15.4272 34.0998 15.6927C34.1252 15.9376 34.125 16.2306 34.125 16.5157V19.4844C34.125 19.7695 34.1252 20.0625 34.0998 20.3073C34.0722 20.5729 34.0023 20.9481 33.7385 21.2904C33.4514 21.6628 33.044 21.8278 32.8002 21.9157C32.5397 22.0096 31.8095 22.2054 31.8095 22.2054C29.46 22.8351 28.0091 25.2824 28.6038 27.5578C28.6038 27.5578 28.7972 28.2973 28.8447 28.5718C28.8888 28.8255 28.9485 29.2641 28.7634 29.6992C28.5938 30.0978 28.2983 30.3442 28.0794 30.4989L24.7058 32.4316C24.4595 32.5707 24.2054 32.7143 23.9804 32.8125C23.7354 32.9193 23.3757 33.0428 22.9491 32.9856C22.4853 32.9234 22.1417 32.6588 21.944 32.4935C21.7341 32.3179 21.2063 31.7943 21.2063 31.7943C20.3312 30.9264 19.1657 30.4921 18 30.4918C16.8344 30.4921 15.6689 30.9264 14.7937 31.7943C14.7937 31.7943 14.266 32.3179 14.0561 32.4935C13.8584 32.6588 13.5147 32.9234 13.0509 32.9856C12.6243 33.0428 12.2646 32.9193 12.0197 32.8125C11.7947 32.7143 11.5407 32.5709 11.2944 32.4318L7.92053 30.4989C7.7018 30.3442 7.40624 30.0978 7.23662 29.6992C7.05146 29.2641 7.11124 28.8255 7.15526 28.5718C7.20289 28.2973 7.39624 27.5578 7.39624 27.5578C7.99097 25.2824 6.54005 22.8351 4.19062 22.2054C4.19062 22.2054 3.46042 22.0096 3.19984 21.9157C2.95607 21.8278 2.54864 21.6628 2.26156 21.2904C1.99772 20.9481 1.92779 20.5729 1.90027 20.3073C1.87489 20.0625 1.87495 19.7695 1.87501 19.4844V16.5157C1.87495 16.2306 1.87489 15.9376 1.90027 15.6927C1.92779 15.4272 1.99774 15.052 2.26159 14.7097C2.54869 14.3372 2.95612 14.1722 3.19991 14.0843C3.46049 13.9904 3.79369 13.9011 4.14928 13.8059L4.19068 13.7948C6.54098 13.1649 7.99286 10.7173 7.3985 8.44209C7.30399 8.08044 7.20523 7.70251 7.15762 7.42801C7.11362 7.17435 7.05388 6.73578 7.23907 6.30064C7.4087 5.90206 7.70425 5.65575 7.92296 5.50102L11.2967 3.56826C11.543 3.42918 11.797 3.28579 12.022 3.18757Z" fill="white"/>
<path d="M18 13.125C15.3077 13.125 13.125 15.3077 13.125 18C13.125 18.3299 13.1628 18.6769 13.2246 18.9867L14.2045 18.0072C14.6438 17.5678 15.3561 17.5678 15.7955 18.0072C16.2348 18.4465 16.2348 19.1589 15.7955 19.5983L14.9793 20.4144C14.6998 20.6943 14.336 21.0586 14.0277 21.2671C13.6295 21.5365 13.0894 21.7359 12.4504 21.5424C11.8698 21.3665 11.5146 20.9727 11.3136 20.5175C11.1697 20.1916 11.0769 19.7238 11.0129 19.401C10.9223 18.9471 10.875 18.4785 10.875 18C10.875 14.065 14.065 10.875 18 10.875C18.9427 10.875 19.8454 11.0587 20.6721 11.3933C21.2481 11.6265 21.5259 12.2823 21.2928 12.8583C21.0597 13.4342 20.4038 13.7121 19.8279 13.4789C19.265 13.251 18.6486 13.125 18 13.125Z" fill="white"/>
<path d="M22.7991 17.1356L21.8887 18.0455C21.4494 18.4848 20.7372 18.4848 20.2978 18.0455C19.8585 17.6061 19.8585 16.8939 20.2978 16.4546L21.0996 15.6527C21.3837 15.3683 21.7008 15.0507 22.0128 14.8401C22.4161 14.5679 22.9642 14.368 23.6094 14.5719C23.8647 14.6526 24.1108 14.7871 24.3225 14.9949C24.5284 15.1971 24.6564 15.4244 24.7408 15.6282C24.8788 15.9608 24.9615 16.437 25.0186 16.7664C25.0888 17.168 25.1253 17.5802 25.1253 18C25.1253 21.9351 21.9354 25.125 18.0003 25.125C17.0575 25.125 16.1548 24.9413 15.3282 24.6066C14.7523 24.3735 14.4744 23.7177 14.7075 23.1417C14.9406 22.5659 15.5965 22.2879 16.1724 22.521C16.7353 22.749 17.3517 22.875 18.0003 22.875C20.6926 22.875 22.8753 20.6924 22.8753 18C22.8753 17.7105 22.8469 17.4096 22.7991 17.1356Z" fill="white"/>
</svg>
