<svg width="36" height="36" viewBox="0 0 36 36" fill="none" xmlns="http://www.w3.org/2000/svg">
<path opacity="0.4" d="M33.3523 13.9964C33.3445 13.5871 33.3407 13.3825 33.2094 13.2538C33.078 13.125 32.8716 13.125 32.4586 13.125H3.54135C3.1284 13.125 2.92193 13.125 2.79068 13.2538C2.65941 13.3825 2.65548 13.5871 2.64762 13.9964C2.62499 15.1752 2.62499 16.4772 2.625 17.9141V18.0857C2.62499 21.3717 2.62497 23.9526 2.89589 25.9678C3.17352 28.0327 3.75408 29.6712 5.04137 30.9585C6.32867 32.2458 7.96706 32.8263 10.032 33.104C12.0472 33.3748 14.6282 33.3749 17.9142 33.3749H18.0858C21.3719 33.3749 23.9529 33.3748 25.968 33.104C28.0329 32.8263 29.6713 32.2458 30.9586 30.9585C32.2459 29.6712 32.8265 28.0327 33.1041 25.9678C33.375 23.9526 33.375 21.3717 33.375 18.0857V17.9141C33.375 16.4774 33.375 15.1752 33.3523 13.9964Z" fill="white"/>
<path d="M18.0853 2.625H17.9138C14.6277 2.62499 12.0467 2.62497 10.0316 2.89589C7.9666 3.17352 6.3282 3.75408 5.0409 5.04137C3.75362 6.32867 3.17306 7.96706 2.89542 10.032C2.85294 10.348 2.8317 10.506 2.89701 10.6321C2.92959 10.695 2.98028 10.753 3.0383 10.7937C3.15459 10.8752 3.31934 10.8752 3.64882 10.8752H32.3503C32.6797 10.8752 32.8445 10.8752 32.9608 10.7937C33.0188 10.753 33.0695 10.695 33.1021 10.6321C33.1673 10.506 33.1462 10.348 33.1036 10.032C32.8261 7.96706 32.2454 6.32867 30.9581 5.04137C29.6708 3.75408 28.0325 3.17352 25.9675 2.89589C23.9524 2.62497 21.3713 2.62499 18.0853 2.625Z" fill="white"/>
<path fill-rule="evenodd" clip-rule="evenodd" d="M9.375 19.5C9.375 18.8787 9.87868 18.375 10.5 18.375H12C12.6213 18.375 13.125 18.8787 13.125 19.5C13.125 20.1213 12.6213 20.625 12 20.625H10.5C9.87868 20.625 9.375 20.1213 9.375 19.5ZM15.375 19.5C15.375 18.8787 15.8787 18.375 16.5 18.375H25.5C26.1213 18.375 26.625 18.8787 26.625 19.5C26.625 20.1213 26.1213 20.625 25.5 20.625H16.5C15.8787 20.625 15.375 20.1213 15.375 19.5ZM9.375 25.5C9.375 24.8787 9.87868 24.375 10.5 24.375H12C12.6213 24.375 13.125 24.8787 13.125 25.5C13.125 26.1213 12.6213 26.625 12 26.625H10.5C9.87868 26.625 9.375 26.1213 9.375 25.5ZM15.375 25.5C15.375 24.8787 15.8787 24.375 16.5 24.375H25.5C26.1213 24.375 26.625 24.8787 26.625 25.5C26.625 26.1213 26.1213 26.625 25.5 26.625H16.5C15.8787 26.625 15.375 26.1213 15.375 25.5Z" fill="white"/>
</svg>
