<svg width="25" height="24" viewBox="0 0 25 24" fill="none" xmlns="http://www.w3.org/2000/svg">
<path d="M18.1333 15.7229C17.4578 15.7229 16.8533 15.994 16.3911 16.4187L10.0533 12.6687C10.0978 12.4608 10.1333 12.253 10.1333 12.0361C10.1333 11.8193 10.0978 11.6114 10.0533 11.4036L16.32 7.68976C16.8 8.14157 17.4311 8.42169 18.1333 8.42169C19.6089 8.42169 20.8 7.21084 20.8 5.71084C20.8 4.21084 19.6089 3 18.1333 3C16.6578 3 15.4667 4.21084 15.4667 5.71084C15.4667 5.92771 15.5022 6.13554 15.5467 6.34337L9.28 10.0572C8.8 9.60542 8.16889 9.3253 7.46667 9.3253C5.99111 9.3253 4.8 10.5361 4.8 12.0361C4.8 13.5361 5.99111 14.747 7.46667 14.747C8.16889 14.747 8.8 14.4669 9.28 14.0151L15.6089 17.7741C15.5644 17.9639 15.5378 18.1627 15.5378 18.3614C15.5378 19.8163 16.7022 21 18.1333 21C19.5644 21 20.7289 19.8163 20.7289 18.3614C20.7289 16.9066 19.5644 15.7229 18.1333 15.7229Z" fill="white"/>
</svg>
