<svg width="22" height="23" viewBox="0 0 22 23" fill="none" xmlns="http://www.w3.org/2000/svg">
<path d="M19.7079 11.5001C19.7079 16.3096 15.8091 20.2084 10.9996 20.2084C14.27 20.2084 16.9213 17.5572 16.9213 14.2867C16.9213 11.0163 14.27 8.36508 10.9996 8.36508C7.72915 8.36508 5.07793 11.0163 5.07793 14.2867C5.07793 17.5572 7.72915 20.2084 10.9996 20.2084C6.19011 20.2084 2.29126 16.3096 2.29126 11.5001C2.29126 6.6906 6.19011 2.79175 10.9996 2.79175C15.8091 2.79175 19.7079 6.6906 19.7079 11.5001Z" fill="url(#paint0_linear_584_1911)"/>
<path d="M10.9996 20.2084C8.69104 20.2084 6.81959 18.337 6.81959 16.0284C6.81959 13.7199 8.69104 11.8484 10.9996 11.8484C13.3081 11.8484 15.1796 13.7199 15.1796 16.0284C15.1796 18.337 13.3081 20.2084 10.9996 20.2084Z" fill="url(#paint1_linear_584_1911)"/>
<defs>
<linearGradient id="paint0_linear_584_1911" x1="2.29126" y1="11.5001" x2="19.7079" y2="11.5001" gradientUnits="userSpaceOnUse">
<stop stop-color="#FF4308"/>
<stop offset="1" stop-color="#FB8500"/>
</linearGradient>
<linearGradient id="paint1_linear_584_1911" x1="2.29126" y1="11.5001" x2="19.7079" y2="11.5001" gradientUnits="userSpaceOnUse">
<stop stop-color="#FF4308"/>
<stop offset="1" stop-color="#FB8500"/>
</linearGradient>
</defs>
</svg>
