<svg width="20" height="20" viewBox="0 0 20 20" fill="none" xmlns="http://www.w3.org/2000/svg">
<path d="M17.708 10.0001C17.708 14.8096 13.8091 18.7084 8.99965 18.7084C12.2701 18.7084 14.9213 16.0572 14.9213 12.7867C14.9213 9.5163 12.2701 6.86508 8.99965 6.86508C5.72921 6.86508 3.07799 9.5163 3.07799 12.7867C3.07799 16.0572 5.72921 18.7084 8.99965 18.7084C4.19017 18.7084 0.291321 14.8096 0.291321 10.0001C0.291321 5.1906 4.19017 1.29175 8.99965 1.29175C13.8091 1.29175 17.708 5.1906 17.708 10.0001Z" fill="#FEFE1F"/>
<path d="M8.99965 18.7084C6.6911 18.7084 4.81965 16.837 4.81965 14.5284C4.81965 12.2199 6.6911 10.3484 8.99965 10.3484C11.3082 10.3484 13.1797 12.2199 13.1797 14.5284C13.1797 16.837 11.3082 18.7084 8.99965 18.7084Z" fill="#FEFE1F"/>
</svg>
