<svg width="30" height="30" viewBox="0 0 30 30" fill="none" xmlns="http://www.w3.org/2000/svg">
<path d="M26.8754 15C26.8754 21.5584 21.5587 26.875 15.0004 26.875C19.4601 26.875 23.0754 23.2597 23.0754 18.8C23.0754 14.3403 19.4601 10.725 15.0004 10.725C10.5407 10.725 6.92537 14.3403 6.92537 18.8C6.92537 23.2597 10.5407 26.875 15.0004 26.875C8.44199 26.875 3.12537 21.5584 3.12537 15C3.12537 8.44162 8.44199 3.125 15.0004 3.125C21.5587 3.125 26.8754 8.44162 26.8754 15Z" fill="white"/>
<path d="M15.0004 26.875C11.8523 26.875 9.30037 24.323 9.30037 21.175C9.30037 18.027 11.8523 15.475 15.0004 15.475C18.1484 15.475 20.7004 18.027 20.7004 21.175C20.7004 24.323 18.1484 26.875 15.0004 26.875Z" fill="white"/>
</svg>
