<svg width="19" height="18" viewBox="0 0 19 18" fill="none" xmlns="http://www.w3.org/2000/svg">
<path d="M18.208 9.00008C18.208 13.8096 14.3091 17.7084 9.49964 17.7084C12.7701 17.7084 15.4213 15.0572 15.4213 11.7867C15.4213 8.5163 12.7701 5.86508 9.49964 5.86508C6.22919 5.86508 3.57797 8.5163 3.57797 11.7867C3.57797 15.0572 6.22919 17.7084 9.49964 17.7084C4.69016 17.7084 0.791306 13.8096 0.791306 9.00008C0.791306 4.1906 4.69016 0.291748 9.49964 0.291748C14.3091 0.291748 18.208 4.1906 18.208 9.00008Z" fill="#CEF12B"/>
<path d="M9.49964 17.7084C7.19109 17.7084 5.31964 15.837 5.31964 13.5284C5.31964 11.2199 7.19109 9.34842 9.49964 9.34842C11.8082 9.34842 13.6796 11.2199 13.6796 13.5284C13.6796 15.837 11.8082 17.7084 9.49964 17.7084Z" fill="#CEF12B"/>
</svg>
